<?xml version="1.0" encoding="UTF-8" standalone="no"?>
<!-- Generator: Adobe Illustrator 16.0.0, SVG Export Plug-In . SVG Version: 6.00 Build 0)  -->

<svg
   xmlns:dc="http://purl.org/dc/elements/1.1/"
   xmlns:cc="http://creativecommons.org/ns#"
   xmlns:rdf="http://www.w3.org/1999/02/22-rdf-syntax-ns#"
   xmlns:svg="http://www.w3.org/2000/svg"
   xmlns="http://www.w3.org/2000/svg"
   xmlns:sodipodi="http://sodipodi.sourceforge.net/DTD/sodipodi-0.dtd"
   xmlns:inkscape="http://www.inkscape.org/namespaces/inkscape"
   version="1.1"
   id="Capa_1"
   x="0px"
   y="0px"
   width="396.494px"
   height="396.494px"
   viewBox="0 0 396.494 396.494"
   style="enable-background:new 0 0 396.494 396.494;"
   xml:space="preserve"
   inkscape:version="0.48.4 r9939"
   sodipodi:docname="icon.svg"
   inkscape:export-filename="Z:\dev\qgisODK\icon_lr.png"
   inkscape:export-xdpi="7.2636662"
   inkscape:export-ydpi="7.2636662"><metadata
   id="metadata47"><rdf:RDF><cc:Work
       rdf:about=""><dc:format>image/svg+xml</dc:format><dc:type
         rdf:resource="http://purl.org/dc/dcmitype/StillImage" /><dc:title /></cc:Work></rdf:RDF></metadata><defs
   id="defs45"><inkscape:path-effect
     effect="spiro"
     id="path-effect4088"
     is_visible="true" /><inkscape:path-effect
     effect="spiro"
     id="path-effect4084"
     is_visible="true" /><inkscape:path-effect
     effect="spiro"
     id="path-effect4080"
     is_visible="true" /><inkscape:path-effect
     effect="spiro"
     id="path-effect4076"
     is_visible="true" /><inkscape:path-effect
     effect="spiro"
     id="path-effect4071"
     is_visible="true" /><inkscape:path-effect
     effect="spiro"
     id="path-effect3853"
     is_visible="true" /><inkscape:path-effect
     effect="spiro"
     id="path-effect3849"
     is_visible="true" /><inkscape:path-effect
     effect="spiro"
     id="path-effect3845"
     is_visible="true" /><inkscape:path-effect
     effect="spiro"
     id="path-effect3841"
     is_visible="true" /><inkscape:path-effect
     effect="spiro"
     id="path-effect3837"
     is_visible="true" /><inkscape:path-effect
     effect="spiro"
     id="path-effect3833"
     is_visible="true" /><inkscape:path-effect
     effect="spiro"
     id="path-effect3818"
     is_visible="true" /><inkscape:path-effect
     effect="spiro"
     id="path-effect3814"
     is_visible="true" /><inkscape:path-effect
     effect="spiro"
     id="path-effect3810"
     is_visible="true" /><inkscape:path-effect
     effect="spiro"
     id="path-effect3806"
     is_visible="true" /><inkscape:path-effect
     effect="spiro"
     id="path-effect3802"
     is_visible="true" /><inkscape:path-effect
     effect="spiro"
     id="path-effect3798"
     is_visible="true" /><inkscape:path-effect
     effect="spiro"
     id="path-effect3026"
     is_visible="true" /><inkscape:path-effect
     effect="spiro"
     id="path-effect3026-9"
     is_visible="true" /><inkscape:path-effect
     effect="spiro"
     id="path-effect3810-4"
     is_visible="true" /><inkscape:path-effect
     effect="spiro"
     id="path-effect3818-8"
     is_visible="true" /><inkscape:path-effect
     effect="spiro"
     id="path-effect3833-8"
     is_visible="true" /><inkscape:path-effect
     effect="spiro"
     id="path-effect3841-2"
     is_visible="true" /><inkscape:path-effect
     effect="spiro"
     id="path-effect3845-4"
     is_visible="true" /><inkscape:path-effect
     effect="spiro"
     id="path-effect3849-5"
     is_visible="true" /><inkscape:path-effect
     effect="spiro"
     id="path-effect3853-5"
     is_visible="true" /></defs><sodipodi:namedview
   pagecolor="#ffffff"
   bordercolor="#666666"
   borderopacity="1"
   objecttolerance="10"
   gridtolerance="10"
   guidetolerance="10"
   inkscape:pageopacity="0"
   inkscape:pageshadow="2"
   inkscape:window-width="997"
   inkscape:window-height="617"
   id="namedview43"
   showgrid="false"
   inkscape:zoom="0.71234816"
   inkscape:cx="103.41866"
   inkscape:cy="272.56504"
   inkscape:window-x="414"
   inkscape:window-y="133"
   inkscape:window-maximized="0"
   inkscape:current-layer="Capa_1"
   showguides="true"
   inkscape:guide-bbox="true" />
<g
   id="g3">
	<path
   d="M304.42,330.901h-43.219c-1.56,0-2.834-1.273-2.834-2.834v-10.52c0-1.559-1.275-2.834-2.834-2.834h-60.475   c-1.56,0-2.835,1.275-2.835,2.834v10.52c0,1.561-1.275,2.834-2.835,2.834h-32.491c-1.56,0-2.835,1.275-2.835,2.834v12.17   c0,1.559,1.275,2.834,2.835,2.834h147.521c1.559,0,2.834-1.275,2.834-2.834v-12.17C307.254,332.179,305.979,330.901,304.42,330.901   z"
   id="path5" />
	<g
   id="g7">
		<path
   d="M377.032,46.368h-308.4c-10.73,0-19.459,8.73-19.459,19.462c0,0,0,37.109,0,50.761c0,6.711-0.498,7.66,4.004,7.66    c2.391,0,5.039,0,7.72,0c3.778,0,3.003-0.949,3.003-7.785c0-13.621,0-50.636,0-50.636c0-2.565,2.168-4.733,4.732-4.733h308.4    c2.563,0,4.731,2.168,4.731,4.733v189.999h-219.87c0,0-7.749-0.014-7.749,10.006c0,5.941,0,17.823,0,23.766    c0,10.006,8,10.006,8,10.006h214.888c10.729,0,19.461-8.729,19.461-19.459V65.83C396.493,55.099,387.763,46.368,377.032,46.368z     M222.833,282.804c-4.845,0-8.771-3.926-8.771-8.768s3.926-8.77,8.771-8.77c4.84,0,8.767,3.928,8.767,8.77    S227.673,282.804,222.833,282.804z"
   id="path9" />
		<path
   d="M124.125,141.633H12.559C5.632,141.633,0,147.266,0,154.193v183.372c0,6.926,5.632,12.561,12.559,12.561h111.566    c6.923,0,12.559-5.635,12.559-12.561V154.193C136.684,147.266,131.048,141.633,124.125,141.633z M54.58,154.443h27.523    c1.313,0,2.38,1.064,2.38,2.381c0,1.314-1.066,2.379-2.38,2.379H54.58c-1.315,0-2.379-1.065-2.379-2.379    C52.201,155.507,53.265,154.443,54.58,154.443z M68.175,341.304c-3.59,0-6.5-2.91-6.5-6.5s2.91-6.5,6.5-6.5s6.5,2.91,6.5,6.5    S71.765,341.304,68.175,341.304z M125.893,322.2c0,1.676-1.342,3.047-2.98,3.047H13.774c-1.639,0-2.98-1.371-2.98-3.047V169.825    c0-1.676,1.342-3.046,2.98-3.046h109.139c1.639,0,2.98,1.371,2.98,3.046V322.2z"
   id="path11" />
	</g>
</g>
<g
   id="g13">
</g>
<g
   id="g15">
</g>
<g
   id="g17">
</g>
<g
   id="g19">
</g>
<g
   id="g21">
</g>
<g
   id="g23">
</g>
<g
   id="g25">
</g>
<g
   id="g27">
</g>
<g
   id="g29">
</g>
<g
   id="g31">
</g>
<g
   id="g33">
</g>
<g
   id="g35">
</g>
<g
   id="g37">
</g>
<g
   id="g39">
</g>
<g
   id="g41">
</g>
<path
   style="fill:none;stroke:#006900;stroke-width:12;stroke-linecap:butt;stroke-linejoin:miter;stroke-miterlimit:4;stroke-opacity:1;stroke-dasharray:none"
   inkscape:path-effect="#path-effect4071"
   inkscape:original-d="m 103.18632,94.24027 c 30.13339,9.29e-4 60.27241,-0.0013 90.40218,0 13.88657,4.384958 24.37652,14.48592 37.43928,21.00252 12.84891,4.88713 20.68187,16.2138 29.2209,26.48145 10.72922,10.64074 22.75455,17.78634 34.69982,25.5683 5.77351,5.70927 14.41785,6.12321 22.77477,6.39207 14.93286,0 29.86571,0 44.79857,0"
   id="path4069"
   d="m 103.18632,94.24027 90.40218,0 37.43928,21.00252 29.2209,26.48145 34.69982,25.5683 c 3.12258,2.55324 6.83918,4.35591 10.75446,5.32548 3.91529,0.96957 7.98676,1.06659 12.02031,1.06659 l 44.79857,0"
   inkscape:connector-curvature="0" /><path
   style="fill:none;stroke:#006900;stroke-width:12;stroke-linecap:butt;stroke-linejoin:miter;stroke-miterlimit:4;stroke-opacity:1;stroke-dasharray:none"
   inkscape:path-effect="#path-effect4076"
   inkscape:original-d="m 169.84651,239.43164 c 1.78916,-8.301 -0.34923,-17.25027 5.08737,-24.62871 2.15996,-7.01702 1.03512,-14.59353 1.3047,-21.9421 -0.21444,-6.37127 4.3568,-16.2102 10.08514,-17.01028 4.94365,-4.10387 10.1195,-6.10669 14.57,-10.38433 5.08545,-2.7948 10.17873,-4.86013 15.32888,-7.40377 -1.60359,0.69715 9.52476,-3.5252 12.97887,-4.46722 8.64015,-2.06761 16.24529,-7.35361 25.11897,-8.65177 8.23875,-2.78387 17.03455,-3.6158 25.10446,-6.87184 7.51262,-0.51778 13.54568,-5.31265 19.20288,-8.62741 6.7884,-4.33662 12.02717,-10.97837 15.8924,-17.89148 4.97895,-5.31989 7.30238,-13.070299 6.90977,-20.343697 0.33432,-3.129611 -0.42346,-5.894399 -0.91315,-8.839756"
   id="path4074"
   d="m 169.84651,239.43164 5.08737,-24.62871 1.3047,-21.9421 10.08514,-17.01028 14.57,-10.38433 15.32888,-7.40377 c 4.3264,-1.48876 8.65269,-2.97783 12.97887,-4.46722 8.3734,-2.88274 16.74639,-5.76666 25.11897,-8.65177 l 25.10446,-6.87184 c 6.88531,-1.57473 13.453,-4.52545 19.20288,-8.62741 6.5488,-4.67191 12.02541,-10.83741 15.8924,-17.89148 l 6.90977,-20.343697 -0.91315,-8.839756"
   inkscape:connector-curvature="0" /><path
   style="fill:none;stroke:#006900;stroke-width:12;stroke-linecap:butt;stroke-linejoin:miter;stroke-miterlimit:4;stroke-opacity:1;stroke-dasharray:none"
   inkscape:path-effect="#path-effect4080"
   inkscape:original-d="m 157.06236,132.5927 c 8.86424,-1.97566 17.69838,-1.37124 25.5683,1.82631 7.8931,1.84639 14.68594,5.30817 21.00831,10.26279 6.17504,4.25942 11.44307,9.55849 16.43097,14.39235 6.38527,6.69048 12.19949,13.41156 12.78414,22.82884 3.08631,4.83335 4.62519,10.27662 7.2864,15.48595 4.21018,4.67329 6.12965,10.63726 5.49775,17.07688 0,7.71317 0,15.42635 0,23.13952 -0.46235,1.79383 1.82221,0.0947 0.91315,1.8263"
   id="path4078"
   d="m 157.06236,132.5927 25.5683,1.82631 c 7.40859,2.48973 14.49061,5.94938 21.00831,10.26279 6.09203,4.0317 11.70434,8.82222 16.43097,14.39235 5.67822,6.69153 10.04588,14.49093 12.78414,22.82884 l 7.2864,15.48595 5.49775,17.07688 0,23.13952 0.91315,1.8263"
   inkscape:connector-curvature="0" /><path
   style="fill:none;stroke:#006900;stroke-width:12;stroke-linecap:butt;stroke-linejoin:miter;stroke-miterlimit:4;stroke-opacity:1;stroke-dasharray:none"
   inkscape:path-effect="#path-effect4088"
   inkscape:original-d="m 245.63823,212.9502 c 22.73763,-0.0286 45.48566,0.0569 68.21645,-0.0423 8.2462,-2.20366 13.37572,-11.05503 16.25022,-17.76418 3.42703,-3.46231 2.0181,-8.95139 2.28289,-13.72702 0,-2.27298 0,-4.54595 0,-6.81893"
   id="path4086"
   d="m 245.63823,212.9502 68.21645,-0.0423 16.25022,-17.76418 c 1.87407,-4.285 2.28289,-9.05012 2.28289,-13.72702 l 0,-6.81893"
   inkscape:connector-curvature="0" /><path
   style="fill:none;stroke:#006c00;stroke-width:14.3325119;stroke-linecap:square;stroke-linejoin:miter;stroke-miterlimit:4;stroke-opacity:1;stroke-dasharray:none"
   d="m 29.48142,205.03451 72.53123,0"
   id="path4307"
   inkscape:connector-curvature="0" /><path
   style="fill:none;stroke:#006c00;stroke-width:14.78085327;stroke-linecap:square;stroke-linejoin:miter;stroke-miterlimit:4;stroke-opacity:1;stroke-dasharray:none"
   d="m 29.459933,247.17362 77.139977,0"
   id="path4307-9"
   inkscape:connector-curvature="0" /><path
   style="fill:none;stroke:#006c00;stroke-width:12.97837257;stroke-linecap:square;stroke-linejoin:miter;stroke-miterlimit:4;stroke-opacity:1;stroke-dasharray:none"
   d="m 28.705237,288.04714 59.47314,0"
   id="path4307-98"
   inkscape:connector-curvature="0" /></svg>